<svg width="170" height="50" viewBox="0 0 170 50" fill="none" xmlns="http://www.w3.org/2000/svg">
<g clip-path="url(#clip0_30_5)">
<path d="M140.21 0.124387C141.895 0.120728 143.58 0.119509 145.266 0.125606C145.511 1.16341 145.784 2.1939 146.021 3.23414C145.052 3.22195 144.085 3.23902 143.118 3.22439C142.979 2.74634 142.838 2.26951 142.695 1.7939C142.465 2.25365 142.36 2.76097 142.17 3.23658C141.28 3.22317 140.39 3.23048 139.501 3.23292C139.723 2.19268 139.979 1.16219 140.21 0.124387Z" fill="#C7383E"/>
<path d="M0.0609741 1.69513C17.8232 1.69391 35.5842 1.69391 53.3463 1.69513C53.3476 17.6927 53.3439 33.6903 53.3476 49.6866C37.4085 49.6915 21.4695 49.689 5.53049 49.6878C5.53049 35.239 5.52927 20.789 5.53049 6.34025C9.54634 6.59879 13.5829 6.90976 17.5085 7.83903C20.6768 8.57927 23.7585 9.75123 26.5366 11.4573C28.7988 10.0939 31.2549 9.06708 33.7915 8.34025C38.4073 7.00245 43.2268 6.6183 48.0049 6.35732C48.0073 19.039 48.0061 31.7195 48.0049 44.4012C35.7 44.3903 23.3939 44.4268 11.089 44.3829C11.1159 40.2744 11.0768 36.1659 11.1085 32.0585C11.8756 32.0061 12.6476 31.9768 13.4085 31.8524C14.7988 31.5866 15.9317 30.6244 16.7976 29.55C18.2195 27.7805 19.2037 25.7146 20.5134 23.8671C21.5744 22.311 22.9451 20.9268 24.6598 20.1024C24.6341 18.3329 24.6524 16.5634 24.65 14.7939C20.0817 11.9427 14.661 10.9073 9.36585 10.4842C9.37805 22.2707 9.37195 34.0573 9.36951 45.8427C22.7476 45.8524 36.1244 45.8439 49.5024 45.8476C49.5098 32.4146 49.4927 18.9817 49.511 5.54879C47.2573 5.5244 45.0012 5.54513 42.7476 5.53781C29.8012 5.54757 16.8549 5.51952 3.90976 5.55245C3.9378 19.3951 3.90854 33.2378 3.92439 47.0805C3.96951 48.0537 3.94634 49.0268 3.94756 50H0.0609741V1.69513ZM41.5293 10.7207C36.9927 11.2598 32.4183 12.3561 28.489 14.7671C28.4915 16.1451 28.4902 17.522 28.4902 18.8988C30.4427 18.5598 32.5744 18.5305 34.372 19.4793C35.6768 20.15 36.6305 21.4634 36.811 22.9268C36.9415 24.0732 36.8402 25.3024 36.2561 26.3207C35.7976 27.1232 34.9963 27.6683 34.1439 27.9829C32.5 28.5963 30.7171 28.5951 29.022 28.9829C28.611 29.1049 28.0976 29.2171 27.8939 29.6378C27.7281 30.2659 27.6707 30.9549 27.8707 31.5817C28.0195 32.0646 28.4927 32.3451 28.961 32.45C29.8256 32.65 30.7329 32.5646 31.5902 32.3683C32.8915 32.0195 33.9707 31.1512 34.9512 30.2634C36.6232 28.7195 38.0817 26.9634 39.7378 25.4049C41.0537 24.1561 42.5037 23.0159 44.1622 22.2573C44.172 18.3305 44.1488 14.4024 44.1732 10.4744C43.2878 10.5024 42.4085 10.6256 41.5293 10.7207ZM26.3268 23.5878C25.2256 24.0744 24.422 25.0207 23.7305 25.9744C22.5378 27.6585 21.5951 29.5049 20.3976 31.1854C19.0707 33.0939 17.2695 34.8342 14.9598 35.4268C14.9232 37.1403 14.9341 38.8561 14.9549 40.5695C24.6902 40.5439 34.4268 40.5659 44.1622 40.5585C44.1671 35.9403 44.1561 31.3207 44.1683 26.7012C41.4549 28.6634 39.5 31.4537 36.9598 33.6122C35.6354 34.7512 34.1098 35.7195 32.3915 36.1171C31.1134 36.4 29.7781 36.5024 28.4829 36.272C27.0402 36.0232 25.6537 35.2524 24.8366 34.0146C23.9073 32.6427 23.7598 30.8866 24.0378 29.289C24.2073 28.1244 24.7317 26.9598 25.7049 26.2537C26.9781 25.3171 28.6024 25.1293 30.1207 24.9061C30.9756 24.7646 31.8878 24.7366 32.6622 24.3085C33.2 24.0366 33.1366 23.1768 32.6329 22.9037C32.0768 22.5805 31.4146 22.5195 30.7841 22.511C29.2402 22.5244 27.7268 22.9585 26.3268 23.5878Z" fill="#C7383E"/>
<path d="M139.27 4.19263C141.563 4.19385 143.857 4.18898 146.15 4.19385C146.334 4.15117 146.329 4.37922 146.373 4.4902C147.849 10.6719 149.343 16.8475 150.826 23.0268C151.122 24.2182 151.355 25.4317 151.799 26.5804C152.288 27.9085 153.065 29.1097 153.956 30.2024C151.846 30.1865 149.737 30.2121 147.627 30.1902C147.416 29.7109 147.394 29.1634 147.254 28.6585C145.937 22.5426 144.62 16.4268 143.302 10.3109C143.091 9.43166 142.965 8.53044 142.695 7.66581C141.174 15.1804 139.649 22.6939 138.099 30.2024C136.065 30.1975 134.032 30.189 131.999 30.2073C133.035 29.4865 133.54 28.2646 133.823 27.078C135.641 19.45 137.455 11.8207 139.27 4.19263Z" fill="#C7383E"/>
<path d="M151.072 4.19144C152.796 4.19266 154.522 4.19388 156.248 4.19022C157.871 7.65241 159.487 11.1183 161.107 14.5817C162.067 16.5951 162.967 18.6378 163.963 20.6329C164 16.1122 163.968 11.5914 163.978 7.07071C164.011 6.02071 163.609 5.01095 162.974 4.189C165.133 4.22924 167.291 4.12802 169.451 4.17192V4.21705C168.695 4.99997 168.384 6.12558 168.407 7.19631C168.415 14.8597 168.396 22.5244 168.411 30.189C166.624 30.2073 164.838 30.1963 163.051 30.1939C161.474 26.767 159.882 23.3475 158.299 19.9231C157.322 17.8683 156.424 15.7744 155.4 13.7439C155.37 19.1963 155.424 24.65 155.417 30.1036C154.551 29.1475 153.805 28.0744 153.282 26.8927C152.689 25.5841 152.404 24.1683 152.013 22.7927C151.716 21.6414 151.368 20.5012 151.1 19.3427C151.045 17.9768 151.094 16.6061 151.077 15.239C151.074 11.5561 151.071 7.87436 151.072 4.19144Z" fill="#C7383E"/>
<path d="M60.0329 4.24151C64.5134 4.21834 68.9939 4.24029 73.4756 4.2281C74.9805 4.172 76.4622 4.90737 77.4231 6.04883C78.0805 6.84151 78.4463 7.86834 78.439 8.89761C78.4402 14.3866 78.4427 19.8744 78.4475 25.3622C78.4475 26.661 77.9231 27.9696 76.9634 28.8561C76.089 29.6635 74.9146 30.1769 73.7158 30.1574C69.1561 30.1671 64.5975 30.1879 60.039 30.1988C60.6585 29.3244 61.0256 28.2769 61.0134 27.1988C61.0158 20.5683 61.0244 13.9379 61.0183 7.30737C61.0292 6.2098 60.6902 5.122 60.0329 4.24151ZM65.5012 8.66834C65.4927 14.3647 65.4988 20.061 65.4975 25.7574C67.7097 25.7574 69.9219 25.761 72.1341 25.7525C73.117 25.7525 74.0036 24.8866 74.0049 23.8988C74.0158 19.4318 73.9975 14.9635 74.0061 10.4964C73.9866 9.42566 72.9378 8.5842 71.8951 8.67322C69.7634 8.67444 67.6317 8.67566 65.5012 8.66834Z" fill="#C7383E"/>
<path d="M77.822 4.23898C79.9817 4.23288 82.1427 4.228 84.3025 4.25971C84.2829 10.8487 84.2902 17.4365 84.2805 24.0256C84.2207 24.9268 85.0024 25.778 85.9134 25.7573C87.6988 25.7585 89.4854 25.7658 91.2707 25.7536C92.1537 25.739 92.8585 24.8939 92.8427 24.0365C92.8305 17.8097 92.8171 11.5817 92.8024 5.35483C93.85 6.06947 94.4049 7.26947 95.0061 8.34508C95.6951 9.79752 96.2829 11.2963 96.9378 12.7658C97.0403 13.0134 97.1805 13.2597 97.1744 13.5378C97.1744 17.0719 97.1744 20.6073 97.1744 24.1414C97.1549 25.2353 97.2878 26.3792 96.8488 27.4146C96.2073 29.1085 94.4122 30.1939 92.6256 30.1512C89.8195 30.1463 87.0122 30.1378 84.2061 30.1353C83.0585 30.1353 81.939 29.6256 81.1232 28.8317C80.2659 27.9963 79.811 26.7963 79.8134 25.6085C79.8037 20 79.7903 14.3926 79.7805 8.7841C79.7903 7.81947 79.6085 6.84142 79.1634 5.97922C78.8415 5.31093 78.3329 4.76581 77.822 4.23898Z" fill="#C7383E"/>
<path d="M93.0817 4.25974C95.1293 4.22316 97.1793 4.25243 99.2281 4.24511C100.466 7.37316 101.695 10.5061 102.931 13.6341C102.955 13.6317 103.002 13.6244 103.027 13.6219C104.279 10.4988 105.479 7.35365 106.744 4.23657C108.798 4.2634 110.852 4.2195 112.906 4.2573C112.578 4.5195 112.202 4.71706 111.896 5.0073C111.034 5.77682 110.494 6.82316 110.018 7.85852C109.177 9.57072 108.587 11.389 107.877 13.1573C107.001 15.4549 106.098 17.7427 105.239 20.0451C105.178 22.4671 105.228 24.8963 105.212 27.3207C105.188 28.3402 105.54 29.3341 106.141 30.1512C104.031 30.1451 101.92 30.1622 99.8098 30.1427C100.131 29.6878 100.423 29.2024 100.567 28.6597C100.791 27.9073 100.74 27.1146 100.744 26.3402C100.745 24.3475 100.741 22.3536 100.746 20.361C100.746 20.1927 100.727 20.0244 100.662 19.8683C99.7695 17.5561 98.8817 15.2415 97.9915 12.928C97.0915 10.6317 96.3086 8.26828 95.0329 6.14511C94.5622 5.35243 93.8732 4.72072 93.0817 4.25974Z" fill="#C7383E"/>
<path d="M117.466 4.2354C123.566 4.23296 129.667 4.23052 135.767 4.23662C135.765 6.32442 135.76 8.41101 135.769 10.4976C134.954 9.33905 133.54 8.65247 132.129 8.67198C131.027 8.6732 129.924 8.6732 128.822 8.6732C128.822 15.0891 128.819 21.5037 128.809 27.9195C128.752 28.7586 129.217 29.5073 129.649 30.1878C127.583 30.2147 125.517 30.1842 123.451 30.2025C123.971 29.4159 124.426 28.5403 124.416 27.5708C124.421 21.2732 124.398 14.9756 124.415 8.67808C123.248 8.66954 122.082 8.67198 120.916 8.67564C119.573 8.70003 118.294 9.39271 117.473 10.4439C117.456 8.37442 117.471 6.30491 117.466 4.2354Z" fill="#C7383E"/>
<path d="M132.851 35.0939C133.861 34.2536 135.267 34.0707 136.532 34.2646C137.221 34.3658 137.85 34.7061 138.374 35.1561C138.091 35.739 137.776 36.3073 137.424 36.8524C137.243 36.4317 137.048 35.9914 136.676 35.7036C135.799 35.0134 134.357 35.167 133.691 36.0829C132.993 37.0073 133.289 38.4768 134.279 39.0768C135.544 39.8317 137.039 40.278 138.056 41.3975C139.274 42.7414 139.009 44.9963 137.759 46.2305C136.601 47.3817 134.946 47.8451 133.367 48.0244C131.291 48.2231 129.037 48.0427 127.29 46.7951C125.265 45.3829 124.145 43.1085 122.616 41.2427C122.57 43.3329 122.615 45.4244 122.593 47.5146C121.99 47.5097 121.388 47.5 120.787 47.5231C120.707 46.1146 120.774 44.7012 120.752 43.2914C120.756 40.3475 120.745 37.4024 120.759 34.4573C121.988 34.4463 123.217 34.4475 124.446 34.4561C125.472 34.4878 126.584 34.6475 127.389 35.3414C128.31 36.1487 128.401 37.567 127.988 38.6548C127.468 39.9658 126.109 40.6927 124.796 40.9829C125.087 41.4963 125.446 41.9658 125.77 42.4609C126.35 43.2939 126.861 44.1951 127.621 44.8853C129.278 46.4219 131.598 47.2317 133.851 47.0451C134.865 46.95 135.934 46.6061 136.604 45.7963C137.548 44.6475 137.177 42.7219 135.915 41.9622C134.905 41.4012 133.762 41.0975 132.8 40.4487C131.86 39.7768 131.543 38.5366 131.662 37.4341C131.728 36.5378 132.143 35.6585 132.851 35.0939ZM122.601 35.4597C122.617 37.0402 122.549 38.6268 122.635 40.2048C123.635 40.2658 124.738 40.1561 125.533 39.4866C126.106 39.0305 126.402 38.289 126.372 37.5646C126.385 36.8817 126.126 36.1366 125.507 35.7805C124.629 35.267 123.567 35.4475 122.601 35.4597Z" fill="#A2A4A7"/>
<path d="M61.1171 34.4609C61.7293 34.4072 62.3451 34.4548 62.9585 34.428C62.9878 36.4072 62.9634 38.3877 62.9719 40.367C62.9793 41.6804 62.8976 43.0304 63.3171 44.2963C63.528 44.978 63.9744 45.6048 64.6244 45.9268C65.5073 46.3707 66.5427 46.4304 67.5073 46.2877C68.4512 46.1463 69.3012 45.5304 69.7171 44.6707C70.2915 43.5304 70.3402 42.2231 70.328 40.9731C70.3329 38.7926 70.3158 36.6109 70.3366 34.4304C70.7597 34.4377 71.1841 34.439 71.6085 34.4341C71.6146 36.9402 71.6097 39.4475 71.611 41.9548C71.6097 43.3524 71.2988 44.8304 70.3573 45.9085C69.5293 46.8877 68.2744 47.4268 67.0122 47.5255C65.5305 47.6475 63.9305 47.4072 62.7378 46.4585C62.0366 45.9268 61.6 45.1133 61.389 44.2707C61.05 42.9951 61.139 41.6658 61.1268 40.3609C61.1207 38.3938 61.1402 36.4268 61.1171 34.4609Z" fill="#A2A4A7"/>
<path d="M84.1963 34.4268C84.6012 34.4817 85.0731 34.3439 85.4402 34.5C85.4719 37.7988 85.4439 41.1 85.4536 44.3988C85.4353 45.439 85.4914 46.4817 85.4231 47.5207C85.1134 47.511 84.8036 47.5085 84.4951 47.5146C81.828 44.1341 79.1439 40.7622 76.2963 37.5329C76.2756 40.8537 76.2939 44.1756 76.2866 47.4976C75.861 47.5146 75.4341 47.5134 75.0085 47.5C74.9988 43.1476 75 38.7951 75.0085 34.4439C75.4719 34.4354 75.9353 34.4366 76.4 34.439C78.1292 36.5134 79.839 38.6049 81.561 40.6854C82.4378 41.7146 83.2512 42.8012 84.1695 43.7939C84.1622 40.8634 84.1732 37.9329 84.1646 35.0037C84.1658 34.8098 84.1817 34.6183 84.1963 34.4268Z" fill="#A2A4A7"/>
<path d="M89.7219 34.4341C90.3244 34.4365 90.9268 34.4438 91.5293 34.4268C91.6036 36.2402 91.5402 38.0585 91.5622 39.8731C91.5646 42.4121 91.5561 44.9511 91.5658 47.4902C90.9537 47.5341 90.3402 47.4938 89.728 47.5182C89.7073 43.1572 89.7183 38.795 89.7219 34.4341Z" fill="#A2A4A7"/>
<path d="M94.4341 34.4207C95.0805 34.4255 95.7268 34.4243 96.3744 34.4231C97.7061 37.9158 99.0244 41.4146 100.348 44.9109C100.918 43.6182 101.357 42.2682 101.873 40.9524C102.705 38.7804 103.494 36.5902 104.346 34.4268C104.862 34.4316 105.377 34.4292 105.894 34.4329C104.213 38.7914 102.545 43.1536 100.863 47.5109C100.488 47.5048 100.111 47.5304 99.7378 47.5011C99.6158 47.4097 99.5878 47.2438 99.5232 47.117C97.989 43.2914 96.4341 39.4743 94.8915 35.6511C94.728 35.245 94.539 34.8475 94.4341 34.4207Z" fill="#A2A4A7"/>
<path d="M108.368 34.4365C110.824 34.4634 113.281 34.4438 115.737 34.4463C115.702 34.8341 115.817 35.2621 115.684 35.628C113.856 35.6694 112.024 35.6438 110.196 35.6402C110.161 37.0609 110.183 38.4829 110.184 39.9048C112.026 39.9073 113.867 39.9207 115.71 39.8975C115.745 40.2719 115.744 40.6487 115.728 41.0255C113.885 41.0304 112.043 41.0438 110.201 41.0194C110.161 42.7024 110.172 44.3877 110.195 46.0707C112.023 46.0658 113.852 46.0438 115.681 46.078C115.827 46.5243 115.69 47.039 115.74 47.5109C113.282 47.5146 110.823 47.4963 108.366 47.5207C108.291 45.0585 108.355 42.5914 108.334 40.1268C108.356 38.2304 108.289 36.3304 108.368 34.4365Z" fill="#A2A4A7"/>
<path d="M142.018 34.4255C142.618 34.4438 143.218 34.4402 143.818 34.4292C143.841 38.7926 143.839 43.1572 143.82 47.5207C143.217 47.5097 142.616 47.5048 142.015 47.5243C141.95 44.2865 142.005 41.045 141.987 37.806C142.006 36.6792 141.946 35.5499 142.018 34.4255Z" fill="#A2A4A7"/>
<path d="M146.789 34.4292C149.852 34.4633 152.916 34.3987 155.978 34.4621C155.974 34.8548 155.974 35.2487 155.976 35.6438C154.776 35.6536 153.577 35.6548 152.377 35.6402C152.322 39.5975 152.379 43.5585 152.349 47.5182C151.745 47.4658 151.101 47.5999 150.522 47.4572C150.493 43.5207 150.521 39.5829 150.509 35.6463C149.263 35.6402 148.02 35.6585 146.776 35.6341C146.773 35.2329 146.777 34.8304 146.789 34.4292Z" fill="#A2A4A7"/>
<path d="M158.144 34.439C158.821 34.4536 159.499 34.4304 160.177 34.4463C160.339 34.4268 160.385 34.6158 160.466 34.7195C161.307 36.2353 162.16 37.7475 163.007 39.2621C163.231 39.6475 163.418 40.0573 163.694 40.4121C164.831 38.4268 165.957 36.4353 167.098 34.4512C167.556 34.4499 168.015 34.4475 168.474 34.4438C168.067 35.2926 167.541 36.0792 167.089 36.9036C166.296 38.2658 165.512 39.6329 164.72 40.9951C164.577 41.256 164.352 41.5048 164.382 41.8219C164.39 43.7121 164.372 45.6012 164.393 47.4902C163.774 47.5377 163.156 47.5024 162.539 47.5134C162.543 45.7414 162.537 43.9682 162.543 42.1963C162.559 41.9792 162.471 41.7804 162.363 41.5999C160.949 39.2182 159.556 36.8231 158.144 34.439Z" fill="#A2A4A7"/>
</g>
<defs>
<clipPath id="clip0_30_5">
<rect width="169.39" height="50" fill="white"/>
</clipPath>
</defs>
</svg>
