<svg width="204" height="60" viewBox="0 0 204 60" fill="none" xmlns="http://www.w3.org/2000/svg">
<g clip-path="url(#clip0_34_95)">
<path d="M168.618 0.149288C170.64 0.144898 172.662 0.143435 174.685 0.150752C174.979 1.39612 175.307 2.6327 175.591 3.881C174.429 3.86636 173.268 3.88685 172.108 3.86929C171.941 3.29563 171.771 2.72343 171.6 2.1527C171.323 2.70441 171.198 3.31319 170.969 3.88392C169.902 3.86782 168.834 3.8766 167.767 3.87953C168.034 2.63124 168.341 1.39465 168.618 0.149288Z" fill="#C7383E"/>
<path d="M0.439026 2.03418C21.7537 2.03272 43.0668 2.03272 64.3815 2.03418C64.3829 21.2312 64.3785 40.4283 64.3829 59.6239C45.2561 59.6298 26.1293 59.6269 7.00244 59.6254C7.00244 42.2869 7.00098 24.9469 7.00244 7.60833C11.8215 7.91857 16.6654 8.29174 21.3761 9.40686C25.1781 10.2952 28.8761 11.7015 32.2098 13.7488C34.9244 12.1127 37.8717 10.8805 40.9156 10.0083C46.4546 8.40296 52.2381 7.94198 57.9717 7.62881C57.9746 22.8469 57.9732 38.0634 57.9717 53.2815C43.2059 53.2683 28.4385 53.3122 13.6727 53.2595C13.7049 48.3293 13.658 43.3991 13.6961 38.4703C14.6166 38.4073 15.5429 38.3722 16.4561 38.223C18.1244 37.9039 19.4839 36.7493 20.5229 35.46C22.2293 33.3366 23.4102 30.8576 24.982 28.6405C26.2551 26.7732 27.9 25.1122 29.9576 24.123C29.9268 21.9995 29.9488 19.8761 29.9459 17.7527C24.4639 14.3313 17.959 13.0888 11.6049 12.581C11.6195 26.7249 11.6122 40.8688 11.6093 55.0113C27.6629 55.023 43.7151 55.0127 59.7688 55.0171C59.7776 38.8976 59.7571 22.7781 59.779 6.65857C57.0746 6.6293 54.3673 6.65418 51.6629 6.6454C36.1273 6.65711 20.5917 6.62345 5.05756 6.66296C5.09122 23.2742 5.0561 39.8854 5.07512 56.4966C5.12927 57.6644 5.10146 58.8322 5.10293 60H0.439026V2.03418ZM50.201 12.8649C44.7571 13.5117 39.2678 14.8273 34.5527 17.7205C34.5556 19.3742 34.5541 21.0264 34.5541 22.6786C36.8971 22.2717 39.4551 22.2366 41.6122 23.3752C43.178 24.18 44.3224 25.7561 44.539 27.5122C44.6956 28.8878 44.5741 30.363 43.8732 31.5849C43.3229 32.5478 42.3615 33.202 41.3385 33.5795C39.3659 34.3156 37.2263 34.3142 35.1922 34.7795C34.699 34.9259 34.0829 35.0605 33.8385 35.5654C33.6395 36.3191 33.5707 37.1459 33.8107 37.8981C33.9893 38.4776 34.5571 38.8142 35.119 38.94C36.1566 39.18 37.2454 39.0776 38.2741 38.842C39.8356 38.4234 41.1307 37.3815 42.3073 36.3161C44.3137 34.4634 46.0639 32.3561 48.0512 30.4859C49.6302 28.9873 51.3702 27.6191 53.3605 26.7088C53.3722 21.9966 53.3444 17.283 53.3737 12.5693C52.3112 12.603 51.2561 12.7508 50.201 12.8649ZM31.958 28.3054C30.6366 28.8893 29.6722 30.0249 28.8424 31.1693C27.4112 33.1903 26.28 35.4059 24.8429 37.4225C23.2507 39.7127 21.0893 41.801 18.3176 42.5122C18.2737 44.5683 18.2868 46.6274 18.3117 48.6834C29.9941 48.6527 41.678 48.6791 53.3605 48.6703C53.3663 43.1283 53.3532 37.5849 53.3678 32.0415C50.1117 34.3961 47.7659 37.7444 44.7176 40.3347C43.1283 41.7015 41.2976 42.8634 39.2356 43.3405C37.7019 43.68 36.0995 43.803 34.5454 43.5264C32.8141 43.2278 31.1502 42.303 30.1698 40.8176C29.0546 39.1713 28.8776 37.0639 29.2112 35.1469C29.4146 33.7493 30.0439 32.3517 31.2117 31.5044C32.7395 30.3805 34.6888 30.1552 36.5107 29.8873C37.5366 29.7176 38.6312 29.6839 39.5605 29.1703C40.2059 28.8439 40.1298 27.8122 39.5254 27.4844C38.858 27.0966 38.0634 27.0234 37.3068 27.0132C35.4541 27.0293 33.638 27.5503 31.958 28.3054Z" fill="#C7383E"/>
<path d="M167.489 5.03121C170.242 5.03267 172.995 5.02682 175.746 5.03267C175.967 4.98145 175.961 5.25511 176.014 5.38828C177.784 12.8063 179.577 20.2171 181.357 27.6322C181.712 29.0619 181.992 30.518 182.524 31.8966C183.111 33.4902 184.043 34.9317 185.113 36.2429C182.581 36.2239 180.05 36.2546 177.518 36.2283C177.265 35.6532 177.239 34.9961 177.07 34.3902C175.49 27.0512 173.909 19.7122 172.329 12.3732C172.076 11.318 171.923 10.2366 171.6 9.19902C169.775 18.2166 167.944 27.2327 166.084 36.2429C163.643 36.2371 161.204 36.2268 158.764 36.2488C160.008 35.3839 160.614 33.9176 160.954 32.4936C163.136 23.34 165.312 14.1849 167.489 5.03121Z" fill="#C7383E"/>
<path d="M181.652 5.02975C183.721 5.03121 185.792 5.03268 187.863 5.02829C189.811 9.18292 191.75 13.3419 193.695 17.498C194.846 19.9141 195.926 22.3654 197.122 24.7595C197.166 19.3346 197.128 13.9097 197.14 8.48487C197.179 7.22487 196.696 6.01316 195.935 5.02682C198.525 5.07511 201.116 4.95365 203.707 5.00633V5.06048C202.8 5.99999 202.427 7.35072 202.455 8.6356C202.463 17.8317 202.441 27.0293 202.459 36.2268C200.315 36.2488 198.171 36.2356 196.027 36.2327C194.135 32.1205 192.224 28.0171 190.324 23.9078C189.152 21.4419 188.075 18.9293 186.846 16.4927C186.809 23.0356 186.875 29.58 186.866 36.1244C185.827 34.9771 184.932 33.6893 184.304 32.2712C183.593 30.701 183.25 29.0019 182.782 27.3512C182.425 25.9697 182.008 24.6015 181.686 23.2112C181.62 21.5722 181.679 19.9273 181.658 18.2868C181.655 13.8673 181.651 9.44926 181.652 5.02975Z" fill="#C7383E"/>
<path d="M72.4054 5.08977C77.782 5.06196 83.1585 5.0883 88.5366 5.07367C90.3424 5.00635 92.1205 5.88879 93.2737 7.25855C94.0624 8.20977 94.5015 9.44196 94.4927 10.6771C94.4941 17.2639 94.4971 23.8493 94.5029 30.4346C94.5029 31.9932 93.8737 33.5634 92.7219 34.6273C91.6727 35.5961 90.2634 36.2122 88.8249 36.1888C83.3532 36.2005 77.8829 36.2254 72.4127 36.2385C73.1561 35.1893 73.5966 33.9322 73.582 32.6385C73.5849 24.682 73.5951 16.7254 73.5878 8.76879C73.601 7.45172 73.1941 6.14635 72.4054 5.08977ZM78.9673 10.402C78.9571 17.2376 78.9644 24.0732 78.9629 30.9088C81.6176 30.9088 84.2722 30.9132 86.9268 30.9029C88.1063 30.9029 89.1702 29.8639 89.1717 28.6785C89.1849 23.3181 89.1629 17.9561 89.1732 12.5956C89.1498 11.3107 87.8912 10.301 86.64 10.4078C84.0819 10.4093 81.5239 10.4107 78.9673 10.402Z" fill="#C7383E"/>
<path d="M93.7522 5.0868C96.3439 5.07948 98.9371 5.07363 101.529 5.11168C101.505 13.0185 101.514 20.9239 101.502 28.8307C101.431 29.9122 102.369 30.9336 103.462 30.9088C105.604 30.9102 107.748 30.919 109.891 30.9044C110.95 30.8868 111.796 29.8727 111.777 28.8439C111.762 21.3717 111.746 13.898 111.729 6.42582C112.986 7.28339 113.652 8.72339 114.373 10.0141C115.2 11.757 115.905 13.5556 116.691 15.319C116.814 15.6161 116.982 15.9117 116.975 16.2453C116.975 20.4863 116.975 24.7288 116.975 28.9697C116.952 30.2824 117.111 31.6551 116.584 32.8975C115.815 34.9302 113.66 36.2327 111.517 36.1814C108.149 36.1756 104.78 36.1653 101.413 36.1624C100.036 36.1624 98.6927 35.5507 97.7137 34.598C96.6849 33.5956 96.139 32.1556 96.1419 30.7302C96.1302 24 96.1141 17.2712 96.1024 10.5409C96.1141 9.38338 95.8961 8.20973 95.362 7.17509C94.9756 6.37314 94.3654 5.71899 93.7522 5.0868Z" fill="#C7383E"/>
<path d="M112.064 5.11179C114.521 5.06789 116.981 5.10301 119.44 5.09423C120.925 8.84789 122.4 12.6074 123.882 16.3611C123.912 16.3581 123.969 16.3493 123.998 16.3464C125.501 12.5986 126.941 8.82447 128.459 5.08398C130.923 5.11618 133.389 5.0635 135.853 5.10886C135.46 5.4235 135.009 5.66057 134.641 6.00886C133.607 6.93228 132.959 8.18789 132.388 9.43033C131.378 11.485 130.67 13.6669 129.818 15.7889C128.767 18.5459 127.683 21.2913 126.653 24.0542C126.58 26.9606 126.64 29.8757 126.62 32.785C126.591 34.0084 127.014 35.2011 127.736 36.1815C125.202 36.1742 122.669 36.1947 120.138 36.1713C120.522 35.6254 120.874 35.043 121.046 34.3918C121.316 33.4889 121.254 32.5376 121.259 31.6084C121.26 29.2172 121.256 26.8245 121.261 24.4333C121.261 24.2313 121.238 24.0294 121.16 23.842C120.089 21.0674 119.024 18.2898 117.956 15.5137C116.876 12.7581 115.936 9.92203 114.405 7.37423C113.84 6.42301 113.014 5.66496 112.064 5.11179Z" fill="#C7383E"/>
<path d="M141.325 5.08247C148.645 5.07955 155.966 5.07662 163.286 5.08394C163.283 7.5893 163.278 10.0932 163.289 12.5971C162.31 11.2069 160.614 10.383 158.921 10.4064C157.598 10.4078 156.275 10.4078 154.952 10.4078C154.952 18.1069 154.949 25.8044 154.936 33.5035C154.869 34.5103 155.426 35.4088 155.944 36.2254C153.465 36.2576 150.986 36.221 148.507 36.243C149.131 35.2991 149.677 34.2483 149.665 33.0849C149.671 25.5278 149.643 17.9708 149.663 10.4137C148.263 10.4035 146.864 10.4064 145.465 10.4108C143.854 10.44 142.319 11.2713 141.334 12.5327C141.313 10.0493 141.331 7.56589 141.325 5.08247Z" fill="#C7383E"/>
<path d="M159.787 42.1127C160.999 41.1044 162.686 40.8849 164.204 41.1176C165.031 41.2391 165.786 41.6474 166.415 42.1874C166.076 42.8869 165.697 43.5688 165.275 44.223C165.057 43.7181 164.823 43.1898 164.377 42.8444C163.324 42.0161 161.595 42.2005 160.796 43.2995C159.957 44.4088 160.313 46.1722 161.501 46.8922C163.019 47.7981 164.813 48.3337 166.033 49.6771C167.495 51.2898 167.176 53.9956 165.676 55.4766C164.287 56.8581 162.301 57.4142 160.406 57.6293C157.916 57.8678 155.21 57.6513 153.114 56.1542C150.683 54.4595 149.34 51.7303 147.505 49.4913C147.449 51.9995 147.503 54.5093 147.477 57.0176C146.754 57.0117 146.031 57 145.31 57.0278C145.215 55.3376 145.295 53.6415 145.269 51.9498C145.273 48.4171 145.26 44.883 145.276 41.3488C146.751 41.3356 148.226 41.3371 149.701 41.3474C150.932 41.3854 152.267 41.5771 153.233 42.4098C154.338 43.3786 154.447 45.0805 153.951 46.3859C153.328 47.9591 151.696 48.8313 150.121 49.1795C150.47 49.7956 150.901 50.3591 151.289 50.9532C151.986 51.9527 152.599 53.0342 153.511 53.8625C155.499 55.7064 158.283 56.6781 160.987 56.4542C162.203 56.34 163.487 55.9274 164.29 54.9556C165.423 53.5771 164.978 51.2664 163.463 50.3547C162.252 49.6815 160.88 49.3171 159.726 48.5386C158.598 47.7322 158.217 46.2439 158.36 44.921C158.439 43.8454 158.937 42.7903 159.787 42.1127ZM147.487 42.5517C147.506 44.4483 147.424 46.3522 147.528 48.2459C148.728 48.3191 150.051 48.1874 151.005 47.3839C151.693 46.8366 152.049 45.9469 152.012 45.0776C152.028 44.2581 151.717 43.3639 150.975 42.9366C149.921 42.3205 148.646 42.5371 147.487 42.5517Z" fill="#A2A4A7"/>
<path d="M73.7063 41.3532C74.441 41.2888 75.18 41.3459 75.9161 41.3137C75.9512 43.6888 75.9219 46.0654 75.9322 48.4406C75.941 50.0166 75.8429 51.6366 76.3463 53.1557C76.5995 53.9737 77.1351 54.7259 77.9151 55.1123C78.9746 55.6449 80.2171 55.7166 81.3746 55.5454C82.5073 55.3757 83.5273 54.6366 84.0263 53.6049C84.7156 52.2366 84.7741 50.6679 84.7595 49.1679C84.7654 46.5513 84.7449 43.9332 84.7697 41.3166C85.2775 41.3254 85.7868 41.3269 86.2961 41.321C86.3034 44.3284 86.2975 47.3371 86.299 50.3459C86.2975 52.023 85.9244 53.7966 84.7946 55.0903C83.801 56.2654 82.2951 56.9123 80.7805 57.0308C79.0024 57.1771 77.0824 56.8888 75.6512 55.7503C74.8097 55.1123 74.2858 54.1362 74.0327 53.1249C73.6258 51.5942 73.7327 49.9991 73.718 48.4332C73.7107 46.0727 73.7341 43.7123 73.7063 41.3532Z" fill="#A2A4A7"/>
<path d="M101.401 41.3122C101.887 41.3781 102.454 41.2127 102.894 41.4C102.932 45.3585 102.899 49.32 102.91 53.2785C102.888 54.5268 102.956 55.7781 102.874 57.0249C102.502 57.0132 102.13 57.0102 101.76 57.0176C98.5595 52.961 95.3385 48.9146 91.9214 45.0395C91.8966 49.0244 91.9185 53.0107 91.9097 56.9971C91.399 57.0176 90.8868 57.0161 90.3761 57C90.3644 51.7771 90.3658 46.5542 90.3761 41.3327C90.9322 41.3224 91.4883 41.3239 92.0458 41.3268C94.1209 43.8161 96.1727 46.3259 98.239 48.8224C99.2912 50.0576 100.267 51.3615 101.369 52.5527C101.36 49.0361 101.374 45.5195 101.363 42.0044C101.365 41.7717 101.384 41.542 101.401 41.3122Z" fill="#A2A4A7"/>
<path d="M108.032 41.321C108.755 41.324 109.478 41.3327 110.201 41.3123C110.29 43.4884 110.214 45.6703 110.24 47.8479C110.243 50.8947 110.233 53.9415 110.245 56.9884C109.51 57.041 108.774 56.9927 108.039 57.022C108.015 51.7888 108.028 46.5542 108.032 41.321Z" fill="#A2A4A7"/>
<path d="M113.687 41.3049C114.462 41.3108 115.238 41.3093 116.015 41.3079C117.613 45.4991 119.195 49.6976 120.783 53.8932C121.468 52.342 121.995 50.722 122.614 49.143C123.612 46.5366 124.559 43.9083 125.581 41.3122C126.2 41.3181 126.818 41.3152 127.439 41.3196C125.422 46.5498 123.42 51.7844 121.402 57.0132C120.951 57.0059 120.499 57.0366 120.051 57.0015C119.905 56.8918 119.871 56.6927 119.794 56.5405C117.953 51.9498 116.087 47.3693 114.236 42.7815C114.039 42.2942 113.813 41.8171 113.687 41.3049Z" fill="#A2A4A7"/>
<path d="M130.408 41.324C133.355 41.3562 136.302 41.3328 139.25 41.3357C139.209 41.801 139.346 42.3147 139.187 42.7537C136.993 42.8035 134.795 42.7728 132.601 42.7684C132.559 44.4732 132.585 46.1796 132.587 47.8859C134.797 47.8889 137.006 47.9049 139.218 47.8771C139.26 48.3264 139.259 48.7786 139.239 49.2308C137.028 49.2367 134.817 49.2528 132.607 49.2235C132.559 51.243 132.572 53.2654 132.6 55.2849C134.794 55.2791 136.989 55.2528 139.182 55.2937C139.358 55.8293 139.194 56.4469 139.254 57.0132C136.304 57.0176 133.354 56.9957 130.405 57.025C130.316 54.0703 130.392 51.1098 130.367 48.1523C130.393 45.8767 130.313 43.5967 130.408 41.324Z" fill="#A2A4A7"/>
<path d="M170.788 41.3108C171.508 41.3327 172.228 41.3284 172.948 41.3152C172.976 46.5513 172.973 51.7888 172.949 57.0249C172.226 57.0118 171.505 57.0059 170.783 57.0293C170.706 53.144 170.772 49.2542 170.75 45.3674C170.773 44.0152 170.701 42.6601 170.788 41.3108Z" fill="#A2A4A7"/>
<path d="M176.513 41.3152C180.189 41.3562 183.865 41.2786 187.54 41.3547C187.535 41.8259 187.535 42.2986 187.537 42.7727C186.097 42.7845 184.658 42.7859 183.218 42.7684C183.152 47.5171 183.221 52.2703 183.184 57.022C182.46 56.9591 181.687 57.1201 180.992 56.9488C180.957 52.2249 180.991 47.4996 180.976 42.7757C179.482 42.7684 177.989 42.7903 176.497 42.761C176.494 42.2796 176.498 41.7966 176.513 41.3152Z" fill="#A2A4A7"/>
<path d="M190.139 41.3269C190.951 41.3445 191.764 41.3167 192.578 41.3357C192.773 41.3123 192.828 41.5391 192.925 41.6635C193.935 43.4825 194.958 45.2972 195.975 47.1147C196.242 47.5772 196.468 48.0689 196.799 48.4947C198.162 46.1123 199.515 43.7225 200.883 41.3415C201.433 41.3401 201.983 41.3371 202.535 41.3328C202.046 42.3513 201.416 43.2952 200.873 44.2845C199.921 45.9191 198.98 47.5596 198.029 49.1942C197.858 49.5074 197.589 49.8059 197.624 50.1864C197.634 52.4547 197.612 54.7215 197.637 56.9884C196.895 57.0454 196.153 57.003 195.413 57.0162C195.417 54.8898 195.41 52.762 195.417 50.6357C195.436 50.3752 195.331 50.1367 195.202 49.9201C193.504 47.062 191.833 44.1879 190.139 41.3269Z" fill="#A2A4A7"/>
</g>
<defs>
<clipPath id="clip0_34_95">
<rect width="203.268" height="60" fill="white" transform="translate(0.365845)"/>
</clipPath>
</defs>
</svg>
