<svg width="17" height="15" viewBox="0 0 17 15" fill="none" xmlns="http://www.w3.org/2000/svg">
<path d="M0.0610352 0.442261C5.39437 0.441895 10.7273 0.441895 16.0607 0.442261C16.061 5.24574 16.0599 10.0492 16.061 14.8523C11.2751 14.8538 6.48923 14.8531 1.70333 14.8527C1.70333 10.5143 1.70296 6.17546 1.70333 1.83702C2.90914 1.91465 4.12118 2.00802 5.2999 2.28705C6.25122 2.50932 7.17654 2.86121 8.01069 3.37349C8.68994 2.9641 9.42742 2.65579 10.1891 2.43755C11.575 2.03585 13.0222 1.92051 14.4568 1.84215C14.4576 5.65 14.4572 9.45748 14.4568 13.2653C10.7621 13.262 7.06705 13.273 3.37235 13.2598C3.38041 12.0262 3.36869 10.7926 3.37821 9.55928C3.60853 9.54353 3.84032 9.53474 4.06882 9.49739C4.48626 9.41757 4.82643 9.12865 5.08642 8.80605C5.51338 8.27473 5.80888 7.65444 6.20215 7.09968C6.52072 6.63244 6.9323 6.21683 7.44714 5.9693C7.43945 5.43798 7.44495 4.90666 7.44421 4.37534C6.07252 3.51923 4.44488 3.20834 2.85495 3.08128C2.85861 6.62036 2.85678 10.1594 2.85605 13.6981C6.87298 13.7011 10.8896 13.6985 14.9065 13.6996C14.9087 9.6662 14.9036 5.63279 14.909 1.59937C14.2324 1.59205 13.5549 1.59827 12.8782 1.59608C8.99094 1.59901 5.10363 1.59058 1.21668 1.60047C1.2251 5.75692 1.21632 9.91337 1.22108 14.0698C1.23462 14.362 1.22767 14.6542 1.22803 14.9464H0.0610352V0.442261ZM12.5124 3.15232C11.1503 3.31417 9.77675 3.64336 8.59693 4.36729C8.59766 4.78106 8.5973 5.19447 8.5973 5.60789C9.18354 5.50609 9.82362 5.4973 10.3634 5.78218C10.7552 5.98358 11.0415 6.37795 11.0957 6.81736C11.1349 7.16156 11.1045 7.53067 10.9291 7.83642C10.7914 8.07737 10.5508 8.24105 10.2949 8.33552C9.80128 8.51971 9.26593 8.51934 8.75695 8.63578C8.63355 8.6724 8.47939 8.70609 8.41824 8.83242C8.36844 9.021 8.35123 9.22789 8.41128 9.4161C8.45595 9.56111 8.59803 9.64533 8.73864 9.67682C8.99826 9.73687 9.27069 9.71124 9.52811 9.65228C9.91882 9.54756 10.2429 9.28684 10.5373 9.02027C11.0393 8.55669 11.4773 8.0294 11.9745 7.56143C12.3696 7.18646 12.805 6.84409 13.303 6.61633C13.3059 5.43725 13.299 4.2578 13.3063 3.07835C13.0405 3.08677 12.7764 3.12376 12.5124 3.15232ZM7.9477 7.01583C7.61705 7.16193 7.37574 7.44608 7.16812 7.73243C6.81 8.23812 6.52695 8.79251 6.16736 9.29709C5.76896 9.87016 5.22813 10.3927 4.53459 10.5707C4.52361 11.0851 4.5269 11.6003 4.53313 12.1148C7.4563 12.1071 10.3798 12.1137 13.303 12.1115C13.3045 10.7248 13.3012 9.33774 13.3048 7.95067C12.4901 8.53985 11.9031 9.37765 11.1404 10.0258C10.7427 10.3678 10.2846 10.6585 9.76869 10.7779C9.38494 10.8629 8.98398 10.8936 8.5951 10.8244C8.16192 10.7497 7.74558 10.5183 7.50024 10.1466C7.22121 9.73467 7.17691 9.20738 7.26039 8.72769C7.31129 8.378 7.46875 8.0283 7.76095 7.81628C8.14324 7.53506 8.63099 7.47867 9.08687 7.41166C9.34356 7.36918 9.61746 7.36076 9.84998 7.23224C10.0115 7.15058 9.99242 6.89243 9.84119 6.8104C9.67422 6.71337 9.47538 6.69506 9.28607 6.69249C8.82249 6.69652 8.36807 6.82688 7.9477 7.01583Z" fill="#C7383E"/>
</svg>
